<svg xmlns="http://www.w3.org/2000/svg" viewBox="0 0 300 300" role="img" aria-label="prismo">
<line x1="202.0" y1="150.0" x2="218.0" y2="150.0" stroke="#57D7BA" stroke-width="5" stroke-linecap="round"/><line x1="201.0" y1="160.1" x2="224.2" y2="164.8" stroke="#57D7BA" stroke-width="5" stroke-linecap="round"/><line x1="198.0" y1="169.9" x2="225.9" y2="181.4" stroke="#ECEDED" stroke-width="5" stroke-linecap="round" stroke-opacity="0.85"/><line x1="193.2" y1="178.9" x2="221.9" y2="198.0" stroke="#ECEDED" stroke-width="5" stroke-linecap="round" stroke-opacity="0.85"/><line x1="186.8" y1="186.8" x2="212.2" y2="212.2" stroke="#ECEDED" stroke-width="5" stroke-linecap="round" stroke-opacity="0.85"/><line x1="178.9" y1="193.2" x2="198.0" y2="221.9" stroke="#ECEDED" stroke-width="5" stroke-linecap="round" stroke-opacity="0.85"/><line x1="169.9" y1="198.0" x2="181.4" y2="225.9" stroke="#ECEDED" stroke-width="5" stroke-linecap="round" stroke-opacity="0.85"/><line x1="160.1" y1="201.0" x2="164.8" y2="224.2" stroke="#ECEDED" stroke-width="5" stroke-linecap="round" stroke-opacity="0.85"/><line x1="150.0" y1="202.0" x2="150.0" y2="218.0" stroke="#ECEDED" stroke-width="5" stroke-linecap="round" stroke-opacity="0.85"/><line x1="139.9" y1="201.0" x2="135.2" y2="224.2" stroke="#ECEDED" stroke-width="5" stroke-linecap="round" stroke-opacity="0.85"/><line x1="130.1" y1="198.0" x2="118.6" y2="225.9" stroke="#ECEDED" stroke-width="5" stroke-linecap="round" stroke-opacity="0.85"/><line x1="121.1" y1="193.2" x2="102.0" y2="221.9" stroke="#ECEDED" stroke-width="5" stroke-linecap="round" stroke-opacity="0.85"/><line x1="113.2" y1="186.8" x2="87.8" y2="212.2" stroke="#ECEDED" stroke-width="5" stroke-linecap="round" stroke-opacity="0.85"/><line x1="106.8" y1="178.9" x2="78.1" y2="198.0" stroke="#ECEDED" stroke-width="5" stroke-linecap="round" stroke-opacity="0.85"/><line x1="102.0" y1="169.9" x2="74.1" y2="181.4" stroke="#ECEDED" stroke-width="5" stroke-linecap="round" stroke-opacity="0.85"/><line x1="99.0" y1="160.1" x2="75.8" y2="164.8" stroke="#ECEDED" stroke-width="5" stroke-linecap="round" stroke-opacity="0.85"/><line x1="98.0" y1="150.0" x2="82.0" y2="150.0" stroke="#ECEDED" stroke-width="5" stroke-linecap="round" stroke-opacity="0.85"/><line x1="99.0" y1="139.9" x2="75.8" y2="135.2" stroke="#ECEDED" stroke-width="5" stroke-linecap="round" stroke-opacity="0.85"/><line x1="102.0" y1="130.1" x2="74.1" y2="118.6" stroke="#ECEDED" stroke-width="5" stroke-linecap="round" stroke-opacity="0.85"/><line x1="106.8" y1="121.1" x2="78.1" y2="102.0" stroke="#ECEDED" stroke-width="5" stroke-linecap="round" stroke-opacity="0.85"/><line x1="113.2" y1="113.2" x2="87.8" y2="87.8" stroke="#ECEDED" stroke-width="5" stroke-linecap="round" stroke-opacity="0.85"/><line x1="121.1" y1="106.8" x2="102.0" y2="78.1" stroke="#ECEDED" stroke-width="5" stroke-linecap="round" stroke-opacity="0.85"/><line x1="130.1" y1="102.0" x2="118.6" y2="74.1" stroke="#ECEDED" stroke-width="5" stroke-linecap="round" stroke-opacity="0.85"/><line x1="139.9" y1="99.0" x2="135.2" y2="75.8" stroke="#ECEDED" stroke-width="5" stroke-linecap="round" stroke-opacity="0.85"/><line x1="150.0" y1="98.0" x2="150.0" y2="82.0" stroke="#ECEDED" stroke-width="5" stroke-linecap="round" stroke-opacity="0.85"/><line x1="160.1" y1="99.0" x2="164.8" y2="75.8" stroke="#ECEDED" stroke-width="5" stroke-linecap="round" stroke-opacity="0.85"/><line x1="169.9" y1="102.0" x2="181.4" y2="74.1" stroke="#ECEDED" stroke-width="5" stroke-linecap="round" stroke-opacity="0.85"/><line x1="178.9" y1="106.8" x2="198.0" y2="78.1" stroke="#ECEDED" stroke-width="5" stroke-linecap="round" stroke-opacity="0.85"/><line x1="186.8" y1="113.2" x2="212.2" y2="87.8" stroke="#ECEDED" stroke-width="5" stroke-linecap="round" stroke-opacity="0.85"/><line x1="193.2" y1="121.1" x2="221.9" y2="102.0" stroke="#ECEDED" stroke-width="5" stroke-linecap="round" stroke-opacity="0.85"/><line x1="198.0" y1="130.1" x2="225.9" y2="118.6" stroke="#ECEDED" stroke-width="5" stroke-linecap="round" stroke-opacity="0.85"/><line x1="201.0" y1="139.9" x2="224.2" y2="135.2" stroke="#57D7BA" stroke-width="5" stroke-linecap="round"/>
</svg>
